<svg xmlns="http://www.w3.org/2000/svg" version="1.1" xmlns:xlink="http://www.w3.org/1999/xlink" xmlns:svgjs="http://svgjs.com/svgjs" width="512" height="512" x="0" y="0" viewBox="0 0 512.016 512.016" style="enable-background:new 0 0 512 512" xml:space="preserve" class=""><g><g xmlns="http://www.w3.org/2000/svg"><path d="m458.648 225.986c0-48.507-39.463-87.97-87.97-87.97-21.381 0-41.559 7.605-57.377 21.27-11.576-9.958-25.762-16.959-41.378-19.824 8.793-67.503 78.365-75.203 81.461-75.509 8.249-.76 14.321-8.063 13.562-16.313-.76-8.249-8.057-14.324-16.313-13.562-1.11.103-27.487 2.683-53.995 18.307-14.024 8.266-29.569 21.09-40.656 40.548-7.194-25.831-19.955-44.862-31.769-57.942-21.455-23.754-44.475-33.451-45.444-33.852-3.84-1.588-8.168-1.514-11.951.208s-6.681 4.937-8.004 8.877c-.359 1.07-8.73 26.57-2.732 58.541 4.517 24.076 18.034 55.783 55.078 81.57-4.409 2.624-8.572 5.62-12.443 8.948-15.824-13.663-36.003-21.268-57.379-21.268-48.507 0-87.97 39.463-87.97 87.97 0 36.873 22.807 68.515 55.052 81.574-6.228 23.161-2.707 47.967 10.32 69.008 11.612 18.753 29.327 32.068 49.766 38.064-2.411 21.843 3.428 43.705 16.883 61.832 16.77 22.594 42.509 35.552 70.619 35.552 48.507 0 87.97-39.463 87.97-87.97 0-3.365-.219-6.553-.533-9.435 21.931-6.467 40.732-21.355 52.033-41.796 11.132-20.133 13.859-43.534 8.087-65.242 32.262-13.051 55.083-44.701 55.083-81.586zm-144.67-.001c0 31.965-26.005 57.97-57.97 57.97s-57.97-26.005-57.97-57.97 26.005-57.97 57.97-57.97 57.97 26.006 57.97 57.97zm-129.969-187.076c18.002 13.248 44.487 40.715 47.487 88.946-43.488-28.626-48.88-66.443-47.487-88.946zm-100.641 187.077c0-31.965 26.005-57.97 57.97-57.97 14.287 0 27.76 5.167 38.258 14.421-7.351 12.848-11.558 27.716-11.558 43.549s4.207 30.701 11.558 43.549c-10.498 9.253-23.971 14.421-38.258 14.421-31.965 0-57.97-26.005-57.97-57.97zm60.879 134.789c-8.862-14.312-11.064-31.247-6.431-46.896 1.169.046 2.342.077 3.522.077 21.376 0 41.556-7.605 57.38-21.269 9.724 8.364 21.292 14.64 34 18.133-4.249 18.667-2.269 38.281 5.791 55.906-10.944 13.569-27.269 21.47-45.051 21.47-1.932 0-3.846-.096-5.74-.28-.009-.001-.018-.002-.027-.003-17.882-1.755-33.836-11.619-43.444-27.138zm111.761 121.241c-18.518 0-35.477-8.541-46.529-23.432-8.823-11.886-12.674-26.208-11.152-40.529 22.155-1.192 42.535-10.491 57.737-25.972 15.276 15.356 35.865 24.709 57.587 25.96.196 1.863.328 3.886.328 6.001-.001 31.966-26.006 57.972-57.971 57.972zm113.216-123.717c-9.355 16.921-25.708 27.714-44.885 29.612-.005 0-.011.001-.016.001-.009.001-.018.001-.027.002-22.158 2.208-43.919-8.711-55.432-27.817-8.504-14.146-10.506-30.955-5.864-46.42 19.129-1.511 36.555-9.168 50.301-20.992 15.818 13.664 35.997 21.27 57.378 21.27 1.184 0 2.361-.031 3.534-.077 4.401 14.733 2.726 30.469-4.989 44.421zm1.454-74.343c-14.291 0-27.764-5.168-38.257-14.423 7.35-12.848 11.556-27.715 11.556-43.547s-4.206-30.699-11.556-43.547c10.493-9.254 23.965-14.423 38.256-14.423 31.965 0 57.97 26.005 57.97 57.97s-26.004 57.97-57.969 57.97z" fill="#f6ab09" data-original="#000000" style=""></path></g></g></svg>